<?xml version="1.0" encoding="UTF-8"?>
<svg width="174px" height="182px" viewBox="0 0 174 182" version="1.1" xmlns="http://www.w3.org/2000/svg" xmlns:xlink="http://www.w3.org/1999/xlink">
    <!-- Generator: Sketch 40.3 (33839) - http://www.bohemiancoding.com/sketch -->
    <title>Group 5</title>
    <desc>Created with Sketch.</desc>
    <defs>
        <rect id="path-1" x="11" y="11" width="124" height="134" rx="62"></rect>
        <filter x="-50%" y="-50%" width="200%" height="200%" filterUnits="objectBoundingBox" id="filter-2">
            <feOffset dx="0" dy="0" in="SourceAlpha" result="shadowOffsetOuter1"></feOffset>
            <feGaussianBlur stdDeviation="12.5" in="shadowOffsetOuter1" result="shadowBlurOuter1"></feGaussianBlur>
            <feColorMatrix values="0 0 0 0 0.428146259   0 0 0 0 0.103100403   0 0 0 0 0.103100403  0 0 0 0.5 0" type="matrix" in="shadowBlurOuter1"></feColorMatrix>
        </filter>
        <linearGradient x1="100%" y1="50%" x2="0%" y2="50%" id="linearGradient-3">
            <stop stop-color="#EE433D" offset="0%"></stop>
            <stop stop-color="#EC3846" offset="49.6568765%"></stop>
            <stop stop-color="#EC2C51" offset="100%"></stop>
        </linearGradient>
    </defs>
    <g id="Welcome" stroke="none" stroke-width="1" fill="none" fill-rule="evenodd">
        <g id="Desktop-Copy-12" transform="translate(-84.000000, -934.000000)">
            <g id="Group-5" transform="translate(98.000000, 947.000000)">
                <g id="Rectangle-8-Copy-17">
                    <use fill="black" fill-opacity="1" filter="url(#filter-2)" xlink:href="#path-1"></use>
                    <use fill="#FFFFFF" fill-rule="evenodd" xlink:href="#path-1"></use>
                </g>
                <rect id="Rectangle-8-Copy-12" fill="#FFFFFF" x="0" y="0" width="145" height="145" rx="72.5"></rect>
                <g id="noun_370181_cc" transform="translate(21.000000, 34.000000)" fill="url(#linearGradient-3)">
                    <g id="Group">
                        <path d="M0.209925926,65.4537993 L6.29777778,65.4537993 L6.61266667,65.4537993 L6.61266667,17.1894901 C6.61266667,13.5104605 9.65659259,10.4621217 13.3302963,10.4621217 L37.8916296,10.4621217 L37.8916296,18.7497533 L14.7814815,18.7497533 L14.7814815,65.5589145 L39.2561481,65.5589145 L39.2561481,65.016875 C39.2561481,66.3833717 40.4107407,67.5396382 41.7752593,67.5396382 L54.6857037,67.5396382 C56.0502222,67.5396382 57.2048148,66.3833717 57.2048148,65.016875 L57.2048148,65.5589145 L81.7844444,65.5589145 L81.7844444,46.6381908 L89.0952593,46.6381908 L89.0952593,65.4537993 L90.3731111,65.4537993 L96.356,65.4537993 L96.356,69.1163651 C96.356,73.2158553 92.9971852,76.5795395 88.9036296,76.5795395 L81.7661481,76.5795395 L14.7997778,76.5795395 L7.6622963,76.5795395 C3.56874074,76.5795395 0.209925926,73.2158553 0.209925926,69.1163651 L0.209925926,65.4537993 Z M103.790074,6.62225329 L103.790074,35.5289145 C103.790074,38.9977138 100.956074,41.7307072 97.5972593,41.7307072 L63.5892593,41.7307072 L52.883037,52.4524507 C52.6731111,52.6626809 52.4631852,52.7677961 52.2532593,52.7677961 C51.8334074,52.7677961 51.3085926,52.4524507 51.3085926,51.8217599 L51.3085926,41.8358224 L49.9440741,41.8358224 C46.4802963,41.8358224 43.7512593,38.9977138 43.7512593,35.6340296 L43.7512593,6.62225329 C43.7512593,3.15345395 46.5852593,0.420460526 49.9440741,0.420460526 L97.4922963,0.420460526 C100.956074,0.420460526 103.790074,3.25856908 103.790074,6.62225329 L103.790074,6.62225329 Z M92.3699989,27.8390461 L55,27.8390461 L55,33.3050329 L92.3699989,33.3050329 L92.3699989,27.8390461 L92.3699989,27.8390461 Z M92.3699989,17.7479934 L55,17.7479934 L55,23.2139803 L92.3699989,23.2139803 L92.3699989,17.7479934 L92.3699989,17.7479934 Z M92.3699989,7.55182566 L55,7.55182566 L55,13.0178125 L92.3699989,13.0178125 L92.3699989,7.55182566 L92.3699989,7.55182566 Z" id="Shape"></path>
                    </g>
                </g>
            </g>
        </g>
    </g>
</svg>