<?xml version="1.0" encoding="UTF-8"?>
<svg width="174px" height="182px" viewBox="0 0 174 182" version="1.1" xmlns="http://www.w3.org/2000/svg" xmlns:xlink="http://www.w3.org/1999/xlink">
    <!-- Generator: Sketch 40.3 (33839) - http://www.bohemiancoding.com/sketch -->
    <title>Group 6</title>
    <desc>Created with Sketch.</desc>
    <defs>
        <rect id="path-1" x="10" y="11" width="124" height="134" rx="62"></rect>
        <filter x="-50%" y="-50%" width="200%" height="200%" filterUnits="objectBoundingBox" id="filter-2">
            <feOffset dx="0" dy="0" in="SourceAlpha" result="shadowOffsetOuter1"></feOffset>
            <feGaussianBlur stdDeviation="12.5" in="shadowOffsetOuter1" result="shadowBlurOuter1"></feGaussianBlur>
            <feColorMatrix values="0 0 0 0 0.428146259   0 0 0 0 0.103100403   0 0 0 0 0.103100403  0 0 0 0.5 0" type="matrix" in="shadowBlurOuter1"></feColorMatrix>
        </filter>
        <linearGradient x1="100%" y1="50%" x2="0%" y2="50%" id="linearGradient-3">
            <stop stop-color="#EE433D" offset="0%"></stop>
            <stop stop-color="#EC3846" offset="49.6568765%"></stop>
            <stop stop-color="#EC2C51" offset="100%"></stop>
        </linearGradient>
    </defs>
    <g id="Welcome" stroke="none" stroke-width="1" fill="none" fill-rule="evenodd">
        <g id="Desktop-Copy-12" transform="translate(-425.000000, -934.000000)">
            <g id="Group-6" transform="translate(440.000000, 947.000000)">
                <g id="Rectangle-8-Copy-17">
                    <use fill="black" fill-opacity="1" filter="url(#filter-2)" xlink:href="#path-1"></use>
                    <use fill="#FFFFFF" fill-rule="evenodd" xlink:href="#path-1"></use>
                </g>
                <rect id="Rectangle-8-Copy-13" fill="#FFFFFF" x="0" y="0" width="145" height="145" rx="72.5"></rect>
                <g id="noun_196741_cc" transform="translate(18.000000, 22.000000)" fill="url(#linearGradient-3)">
                    <g id="Group">
                        <path d="M55.0507979,35.0569838 L54.818883,35.0569838 L38.3529255,35.0569838 C38.2369681,34.5894514 38.2369681,34.1219189 38.3529255,33.6543864 C38.468883,32.9530877 38.7007979,32.251789 38.9327128,31.6673734 C39.2805851,30.8491916 39.8603723,30.3816592 40.556117,29.9141267 C41.7156915,29.0959449 43.1071809,28.5115293 44.3827128,27.9271137 C45.3103723,27.5764644 46.3539894,27.1089319 47.2816489,26.7582825 C49.9486702,25.4725682 50.4125,24.5375033 50.4125,24.4206202 L50.4125,24.186854 L50.4125,23.6024384 L50.4125,23.0180228 C44.4986702,23.0180228 42.7593085,20.5634773 42.7593085,20.5634773 C42.7593085,20.5634773 46.1220745,20.5634773 45.8901596,11.5634773 C45.6582447,2.68036046 49.7167553,1.16087994 51.3401596,0.576464352 C55.7465426,-1.1767824 57.949734,1.6284124 57.949734,1.6284124 C63.0518617,1.16087994 64.4433511,6.77126955 63.8635638,13.199841 C63.2837766,19.6284124 66.7625,20.6803605 66.7625,20.6803605 C64.3273936,23.1349059 59.225266,23.0180228 59.225266,23.0180228 L59.225266,24.0699708 L59.225266,24.186854 L59.225266,24.4206202 C59.225266,24.5375033 59.5731383,25.4725682 62.356117,26.7582825 C63.2837766,27.225815 64.3273936,27.5764644 65.2550532,27.9271137 C66.6465426,28.5115293 67.9220745,29.0959449 69.0816489,29.9141267 C69.7773936,30.3816592 70.3571809,30.8491916 70.7050532,31.6673734 C70.9369681,32.3686721 71.168883,32.9530877 71.2848404,33.6543864 C71.6327128,34.1219189 71.6327128,34.5894514 71.5167553,35.0569838 L55.0507979,35.0569838 Z" id="Path"></path>
                        <path d="M108.884043,88.7142857 C108.884043,86.7272727 108.420213,83.5714286 105.405319,82.8701299 C100.767021,81.7012987 97.056383,79.9480519 97.056383,79.9480519 C96.5925532,79.3636364 96.3606383,78.1948052 96.2446809,77.4935065 C97.2882979,76.0909091 97.7521277,74.4545455 98.1,72.9350649 C98.2159574,73.0519481 98.3319149,73.0519481 98.4478723,73.0519481 C98.9117021,73.0519481 99.4914894,72.4675325 100.071277,70.2467532 C100.767021,67.9090909 100.303191,67.0909091 99.7234043,66.974026 L99.7234043,66.974026 C101.578723,58.0909091 97.4042553,57.7402597 97.4042553,57.7402597 C97.4042553,57.7402597 96.8244681,56.4545455 95.0851064,55.5194805 C94.1574468,54.9350649 92.8819149,54.4675325 91.1425532,54.4675325 L90.3308511,54.4675325 C89.6351064,54.4675325 89.0553191,54.5844156 88.4755319,54.8181818 L88.4755319,54.8181818 L88.4755319,54.8181818 C87.7797872,55.0519481 87.0840426,55.4025974 86.3882979,55.8701299 C85.5765957,56.3376623 84.8808511,56.9220779 84.3010638,57.6233766 C83.2574468,58.6753247 82.4457447,60.0779221 81.9819149,61.7142857 C81.6340426,63.1168831 81.6340426,64.7532468 82.2138298,66.2727273 L82.0978723,66.2727273 C81.4021277,66.2727273 80.706383,66.8571429 81.4021277,69.6623377 C81.9819149,71.8831169 82.5617021,72.4675325 83.0255319,72.4675325 C83.2574468,74.1038961 83.837234,75.8571429 84.9968085,77.4935065 C84.8808511,78.0779221 84.6489362,79.012987 84.3010638,79.5974026 C84.3010638,79.5974026 80.3585106,81.5844156 75.7202128,82.6363636 C72.7053191,83.3376623 72.2414894,86.4935065 72.2414894,88.4805195 L72.2414894,89.1818182 L108.768085,89.1818182 C108.884043,89.2987013 108.884043,89.0649351 108.884043,88.7142857 L108.884043,88.7142857 Z M36.6425532,88.7142857 C36.6425532,86.7272727 36.1787234,83.5714286 33.1638298,82.8701299 C28.5255319,81.7012987 24.8148936,79.9480519 24.8148936,79.9480519 C24.3510638,79.3636364 24.1191489,78.1948052 24.0031915,77.4935065 C25.0468085,76.0909091 25.5106383,74.4545455 25.8585106,72.9350649 C25.9744681,73.0519481 26.0904255,73.0519481 26.206383,73.0519481 C26.6702128,73.0519481 27.25,72.4675325 27.8297872,70.2467532 C28.5255319,67.9090909 28.0617021,67.0909091 27.4819149,66.974026 L27.4819149,66.974026 C29.337234,58.0909091 25.162766,57.7402597 25.162766,57.7402597 C25.162766,57.7402597 24.5829787,56.4545455 22.843617,55.5194805 C21.9159574,54.9350649 20.6404255,54.4675325 18.9010638,54.4675325 L18.0893617,54.4675325 C17.393617,54.4675325 16.8138298,54.5844156 16.2340426,54.8181818 L16.2340426,54.8181818 L16.2340426,54.8181818 C15.5382979,55.0519481 14.8425532,55.4025974 14.1468085,55.8701299 C13.3351064,56.3376623 12.6393617,56.9220779 12.0595745,57.6233766 C11.0159574,58.6753247 10.2042553,60.0779221 9.74042553,61.7142857 C9.39255319,63.1168831 9.39255319,64.7532468 9.97234043,66.2727273 L9.85638298,66.2727273 C9.1606383,66.2727273 8.46489362,66.8571429 9.1606383,69.6623377 C9.74042553,71.8831169 10.3202128,72.4675325 10.7840426,72.4675325 C11.0159574,74.1038961 11.5957447,75.8571429 12.7553191,77.4935065 C12.6393617,78.0779221 12.4074468,79.012987 12.0595745,79.5974026 C12.0595745,79.5974026 8.11702128,81.5844156 3.4787234,82.6363636 C0.463829787,83.3376623 0,86.4935065 0,88.4805195 L0,89.1818182 L36.5265957,89.1818182 C36.6425532,89.2987013 36.6425532,89.0649351 36.6425532,88.7142857 L36.6425532,88.7142857 Z M66.2117021,71.7662338 C60.7617021,77.2597403 52.412766,78.1948052 46.0351064,74.3376623 L46.0351064,74.3376623 C43.4840426,76.2077922 40.8170213,76.5584416 38.9617021,76.3246753 C38.3819149,76.2077922 38.15,75.3896104 38.7297872,75.038961 C40.4691489,74.2207792 41.512766,72.4675325 42.2085106,71.1818182 L42.0925532,71.0649351 C36.2946809,64.5194805 36.5265957,54.3506494 42.7882979,48.038961 C49.2819149,41.4935065 59.8340426,41.4935065 66.3276596,48.038961 C72.7053191,54.5844156 72.7053191,65.2207792 66.2117021,71.7662338 L66.2117021,71.7662338 Z M50.2095745,59.961039 C50.2095745,58.7922078 49.2819149,57.8571429 48.1223404,57.8571429 C46.962766,57.8571429 46.0351064,58.7922078 46.0351064,59.961039 C46.0351064,61.1298701 46.962766,62.0649351 48.1223404,62.0649351 C49.2819149,62.0649351 50.2095745,61.1298701 50.2095745,59.961039 L50.2095745,59.961039 Z M56.4712766,59.961039 C56.4712766,58.7922078 55.543617,57.8571429 54.3840426,57.8571429 C53.2244681,57.8571429 52.2968085,58.7922078 52.2968085,59.961039 C52.2968085,61.1298701 53.2244681,62.0649351 54.3840426,62.0649351 C55.543617,62.0649351 56.4712766,61.1298701 56.4712766,59.961039 L56.4712766,59.961039 Z M62.8489362,59.961039 C62.8489362,58.7922078 61.9212766,57.8571429 60.7617021,57.8571429 C59.6021277,57.8571429 58.6744681,58.7922078 58.6744681,59.961039 C58.6744681,61.1298701 59.6021277,62.0649351 60.7617021,62.0649351 C61.9212766,61.9480519 62.8489362,61.1298701 62.8489362,59.961039 L62.8489362,59.961039 Z" id="Shape"></path>
                    </g>
                </g>
            </g>
        </g>
    </g>
</svg>