<?xml version="1.0" encoding="UTF-8"?>
<svg width="174px" height="182px" viewBox="0 0 174 182" version="1.1" xmlns="http://www.w3.org/2000/svg" xmlns:xlink="http://www.w3.org/1999/xlink">
    <!-- Generator: Sketch 40.3 (33839) - http://www.bohemiancoding.com/sketch -->
    <title>Group 7</title>
    <desc>Created with Sketch.</desc>
    <defs>
        <rect id="path-1" x="9" y="11" width="124" height="134" rx="62"></rect>
        <filter x="-50%" y="-50%" width="200%" height="200%" filterUnits="objectBoundingBox" id="filter-2">
            <feOffset dx="0" dy="0" in="SourceAlpha" result="shadowOffsetOuter1"></feOffset>
            <feGaussianBlur stdDeviation="12.5" in="shadowOffsetOuter1" result="shadowBlurOuter1"></feGaussianBlur>
            <feColorMatrix values="0 0 0 0 0.428146259   0 0 0 0 0.103100403   0 0 0 0 0.103100403  0 0 0 0.5 0" type="matrix" in="shadowBlurOuter1"></feColorMatrix>
        </filter>
        <linearGradient x1="100%" y1="50%" x2="0%" y2="50%" id="linearGradient-3">
            <stop stop-color="#EE433D" offset="0%"></stop>
            <stop stop-color="#EC3846" offset="49.6568765%"></stop>
            <stop stop-color="#EC2C51" offset="100%"></stop>
        </linearGradient>
    </defs>
    <g id="Welcome" stroke="none" stroke-width="1" fill="none" fill-rule="evenodd">
        <g id="Desktop-Copy-12" transform="translate(-766.000000, -934.000000)">
            <g id="Group-7" transform="translate(782.000000, 947.000000)">
                <g id="Rectangle-8-Copy-17">
                    <use fill="black" fill-opacity="1" filter="url(#filter-2)" xlink:href="#path-1"></use>
                    <use fill="#FFFFFF" fill-rule="evenodd" xlink:href="#path-1"></use>
                </g>
                <rect id="Rectangle-8-Copy-14" fill="#FFFFFF" x="0" y="0" width="145" height="145" rx="72.5"></rect>
                <g id="noun_27324_cc" transform="translate(23.000000, 25.000000)" fill="url(#linearGradient-3)">
                    <g id="Group">
                        <g id="Shape">
                            <path d="M81.25065,61.65785 C84.98985,61.65785 88.0194,58.62545 88.0194,54.8891 C88.0194,51.148 84.98985,48.11845 81.25065,48.11845 C77.5124,48.11845 74.4781,51.148 74.4781,54.8891 C74.4781,58.62545 77.5105,61.65785 81.25065,61.65785 L81.25065,61.65785 Z"></path>
                            <path d="M86.8376,63.39445 C83.88785,63.39445 81.90045,63.3916 80.57615,63.3897 C79.9577,63.3973 78.5289,63.4087 75.74825,63.42485 C73.2488,63.42485 70.4862,64.5088 68.9928,66.785 L63.9445,74.56835 L64.05565,56.45565 C64.05565,56.34735 64.0376,56.2628 64.00625,56.1963 C63.5037,54.8093 58.94085,54.7789 58.94085,56.4965 C58.94085,58.13335 58.5238,79.97575 60.35825,81.85295 C60.67175,82.1731 60.91115,82.50465 61.44315,82.5721 C62.18795,82.66995 63.0401,82.5664 63.8495,82.35265 C63.8685,82.35075 63.8989,82.3403 63.9236,82.3346 C65.12155,82.00495 66.20645,81.42545 66.70425,80.8298 C66.74605,80.7842 66.8116,80.7405 66.84295,80.69775 L71.0429,74.42965 L71.96535,74.42965 L71.96535,95 L88.7167,95 L94.59625,95 C94.59625,95 94.74255,93.67285 94.74255,92.0322 L94.74255,70.87 C94.74255,66.348 91.7928,63.39445 86.8376,63.39445 L86.8376,63.39445 Z"></path>
                            <path d="M80.57615,63.39065 C82.80295,63.36215 74.4933,63.3821 80.57615,63.39065 L80.57615,63.39065 L80.57615,63.39065 Z"></path>
                            <path d="M64.49075,39.40125 C65.1054,39.3984 65.60035,38.8987 65.5975,38.285 C65.5956,37.6732 65.09875,37.1792 64.48695,37.1792 L64.4822,37.1792 C64.3017,37.1792 46.31155,38.4199 44.5569,57.00855 C44.49895,57.6194 44.94735,58.16185 45.55915,58.21885 C45.5943,58.2217 45.6304,58.22455 45.6646,58.22455 C46.2308,58.22455 46.71435,57.79325 46.76945,57.2166 C48.3417,40.5612 64.37675,39.40885 64.49075,39.40125 L64.49075,39.40125 Z"></path>
                            <path d="M58.13905,33.7535 C58.75275,33.75065 59.2477,33.25095 59.24485,32.63725 C59.2439,32.02545 58.74705,31.5305 58.1343,31.5305 L58.1305,31.5305 C57.94905,31.53145 39.95985,32.7712 38.2052,51.36175 C38.14725,51.9726 38.59565,52.5141 39.20745,52.57205 C39.2426,52.5749 39.2787,52.57775 39.3129,52.57775 C39.8791,52.57775 40.36265,52.1455 40.41775,51.5698 C41.99,34.9144 58.0241,33.76205 58.13905,33.7535 L58.13905,33.7535 Z"></path>
                            <path d="M33.30035,34.45365 C33.8333,34.3843 34.07175,34.0556 34.3862,33.7345 C36.2216,31.8573 35.80265,10.01395 35.80265,8.37805 C35.80265,6.66045 31.2417,6.6899 30.7382,8.07785 C30.70685,8.1453 30.68785,8.2289 30.68785,8.3372 L30.8009,26.45085 L25.75165,18.6675 C24.2592,16.39225 21.49565,15.30735 18.99715,15.30735 C16.302,15.29215 14.88745,15.2817 14.2386,15.27315 C12.91525,15.27505 10.90695,15.2779 7.9078,15.2779 C2.95165,15.27695 0,18.22955 0,22.75155 L0,43.9147 C0,45.55345 0.1482,46.88155 0.1482,46.88155 L6.0268,46.88155 L22.77815,46.88155 L22.77815,26.31215 L23.7006,26.31215 L27.90055,32.5793 C27.93285,32.62205 27.9984,32.66575 28.03925,32.7104 C28.53515,33.3051 29.6172,33.8846 30.81325,34.21425 C31.7053,34.447 32.55555,34.5496 33.30035,34.45365 Z"></path>
                            <path d="M13.49285,13.5394 C17.23205,13.5394 20.2654,10.507 20.2654,6.77065 C20.2654,3.0305 17.2311,0 13.49285,0 C9.75555,0 6.726,3.0305 6.726,6.77065 C6.726,10.50795 9.75555,13.5394 13.49285,13.5394 L13.49285,13.5394 Z"></path>
                            <path d="M14.23765,15.2722 C20.24545,15.26175 11.81515,15.2437 14.23765,15.2722 L14.23765,15.2722 L14.23765,15.2722 Z"></path>
                            <path d="M52.20345,27.38755 C52.8181,27.3847 53.31305,26.885 53.3102,26.2713 C53.3083,25.6576 52.7516,25.17215 52.1949,25.16455 C52.0144,25.1655 34.02425,26.4062 32.2696,44.99485 C32.21165,45.6057 32.66005,46.14815 33.27185,46.20515 C33.307,46.20895 33.3431,46.2099 33.3773,46.2099 C33.9435,46.2099 34.42705,45.7786 34.48215,45.2029 C36.0544,28.5475 52.08945,27.39515 52.20345,27.38755 L52.20345,27.38755 Z"></path>
                            <path d="M71.4951,44.08475 C71.4932,43.47295 70.99635,42.97895 70.38455,42.97895 L70.3798,42.97895 C70.1993,42.97895 52.2101,44.21965 50.4545,62.80925 C50.3956,63.41915 50.8459,63.9616 51.45675,64.0186 C51.49095,64.02145 51.52705,64.02525 51.5622,64.02525 C52.12935,64.02525 52.6129,63.593 52.6661,63.0173 C54.2393,46.36095 70.2734,45.2086 70.3874,45.201 C71.00395,45.1991 71.49795,44.6994 71.4951,44.08475 L71.4951,44.08475 Z"></path>
                        </g>
                    </g>
                </g>
            </g>
        </g>
    </g>
</svg>