<?xml version="1.0" encoding="UTF-8"?>
<svg width="16px" height="16px" viewBox="0 0 16 16" version="1.1" xmlns="http://www.w3.org/2000/svg" xmlns:xlink="http://www.w3.org/1999/xlink">
    <!-- Generator: sketchtool 40.1 (33804) - http://www.bohemiancoding.com/sketch -->
    <title>BC75D9B2-5B29-4045-94AF-ABCCE60684BB</title>
    <desc>Created with sketchtool.</desc>
    <defs></defs>
    <g id="Welcome" stroke="none" stroke-width="1" fill="none" fill-rule="evenodd">
        <g id="Desktop-Copy-10" transform="translate(-888.000000, -197.000000)" fill="#9B9B9B">
            <g id="settings" transform="translate(888.000000, 197.000000)">
                <path d="M13.9548872,8.8 C13.9548872,8.56 14.0350877,8.32 14.0350877,8 C14.0350877,7.68 14.0350877,7.44 13.9548872,7.2 L15.6390977,5.84 C15.7994987,5.68 15.7994987,5.52 15.7192982,5.36 L14.1152882,2.56 C14.0350877,2.48 13.8746867,2.4 13.6340852,2.48 L11.6290727,3.28 C11.2280702,2.96 10.7468672,2.72 10.2656642,2.48 L9.94486216,0.4 C10.0250627,0.16 9.78446115,0 9.62406015,0 L6.4160401,0 C6.2556391,0 6.01503759,0.16 6.01503759,0.32 L5.69423559,2.48 C5.21303258,2.64 4.81203008,2.96 4.33082707,3.28 L2.40601504,2.48 C2.16541353,2.4 2.00501253,2.48 1.84461153,2.64 L0.240601504,5.44 C0.160401003,5.52 0.240601504,5.76 0.401002506,5.92 L2.08521303,7.2 C2.08521303,7.44 2.00501253,7.68 2.00501253,8 C2.00501253,8.32 2.00501253,8.56 2.08521303,8.8 L0.401002506,10.16 C0.240601504,10.32 0.240601504,10.48 0.320802005,10.64 L1.92481203,13.44 C2.00501253,13.52 2.16541353,13.6 2.40601504,13.52 L4.41102757,12.72 C4.81203008,13.04 5.29323308,13.28 5.77443609,13.52 L6.0952381,15.6 C6.0952381,15.76 6.2556391,15.92 6.4962406,15.92 L9.70426065,15.92 C9.86466165,15.92 10.1052632,15.76 10.1052632,15.6 L10.4260652,13.52 C10.9072682,13.28 11.3884712,13.04 11.7894737,12.72 L13.7944862,13.52 C13.9548872,13.6 14.1954887,13.52 14.2756892,13.36 L15.8796992,10.56 C15.9598997,10.4 15.9598997,10.16 15.7994987,10.08 L13.9548872,8.8 L13.9548872,8.8 Z M8.02005013,10.8 C6.4962406,10.8 5.21303258,9.52 5.21303258,8 C5.21303258,6.48 6.4962406,5.2 8.02005013,5.2 C9.54385965,5.2 10.8270677,6.48 10.8270677,8 C10.8270677,9.52 9.54385965,10.8 8.02005013,10.8 L8.02005013,10.8 Z" id="Shape"></path>
            </g>
        </g>
    </g>
</svg>